0
SECTION
2
HEADER
9
$INSUNITS
70
1
9
$ACADVER
1
AC1014
9
$HANDSEED
5
FFFF
0
ENDSEC
0
SECTION
2
TABLES
0
TABLE
2
VPORT
5
8
100
AcDbSymbolTable
0
ENDTAB
0
TABLE
2
LTYPE
5
5
100
AcDbSymbolTable
0
LTYPE
5
14
100
AcDbSymbolTableRecord
100
AcDbLinetypeTableRecord
2
BYBLOCK
70
0
0
LTYPE
5
15
100
AcDbSymbolTableRecord
100
AcDbLinetypeTableRecord
2
BYLAYER
70
0
0
ENDTAB
0
TABLE
2
LAYER
5
2
100
AcDbSymbolTable
70
2
0
LAYER
5
50
100
AcDbSymbolTableRecord
100
AcDbLayerTableRecord
2
0
70
0
6
CONTINUOUS
0
ENDTAB
0
TABLE
2
STYLE
5
3
100
AcDbSymbolTable
70
1
0
STYLE
5
11
100
AcDbSymbolTableRecord
100
AcDbTextStyleTableRecord
2
STANDARD
70
0
0
ENDTAB
0
TABLE
2
VIEW
5
6
100
AcDbSymbolTable
70
0
0
ENDTAB
0
TABLE
2
UCS
5
7
100
AcDbSymbolTable
70
0
0
ENDTAB
0
TABLE
2
APPID
5
9
100
AcDbSymbolTable
70
2
0
APPID
5
12
100
AcDbSymbolTableRecord
100
AcDbRegAppTableRecord
2
ACAD
70
0
0
ENDTAB
0
TABLE
2
DIMSTYLE
5
A
100
AcDbSymbolTable
70
1
0
ENDTAB
0
TABLE
2
BLOCK_RECORD
5
1
100
AcDbSymbolTable
70
1
0
BLOCK_RECORD
5
1F
100
AcDbSymbolTableRecord
100
AcDbBlockTableRecord
2
*MODEL_SPACE
0
BLOCK_RECORD
5
1B
100
AcDbSymbolTableRecord
100
AcDbBlockTableRecord
2
*PAPER_SPACE
0
ENDTAB
0
ENDSEC
0
SECTION
2
BLOCKS
0
BLOCK
5
20
100
AcDbEntity
100
AcDbBlockBegin
2
*MODEL_SPACE
0
ENDBLK
5
21
100
AcDbEntity
100
AcDbBlockEnd
0
BLOCK
5
1C
100
AcDbEntity
100
AcDbBlockBegin
2
*PAPER_SPACE
0
ENDBLK
5
1D
100
AcDbEntity
100
AcDbBlockEnd
0
ENDSEC
0
SECTION
2
ENTITIES
0
LINE
5
100
100
AcDbEntity
8
0
100
AcDbLine
10
5.3124999999999876
20
7.9999999999999982
30
0
11
5.3124999999999893
21
7.3295823160020577
31
0
0
ARC
5
101
100
AcDbEntity
8
0
100
AcDbCircle
10
5.2382537879755882
20
7.1992462120245815
30
0
40
0.15000000000000011
210
0
220
0
230
1
100
AcDbArc
50
-150.33191487119504
51
60.331914871274762
0
LINE
5
102
100
AcDbEntity
8
0
100
AcDbLine
10
5.1079176839982141
20
7.1249999999999982
30
0
11
4.5624999999999947
21
7.1249999999999982
31
0
0
LINE
5
103
100
AcDbEntity
8
0
100
AcDbLine
10
4.5624999999999947
20
7.1249999999999982
30
0
11
4.5624999999999947
21
6.7045823160019458
31
0
0
ARC
5
104
100
AcDbEntity
8
0
100
AcDbCircle
10
4.4882537879754398
20
6.5742462120245566
30
0
40
0.15000000000000041
210
0
220
0
230
1
100
AcDbArc
50
-150.33191487120627
51
60.33191487120731
0
LINE
5
105
100
AcDbEntity
8
0
100
AcDbLine
10
4.3579176839980516
20
6.4999999999999991
30
0
11
-4.3579176839980471
21
6.4999999999999991
31
0
0
ARC
5
106
100
AcDbEntity
8
0
100
AcDbCircle
10
-4.4882537879754185
20
6.5742462120245859
30
0
40
0.15000000000000002
210
0
220
0
230
1
100
AcDbArc
50
119.66808512880668
51
330.33191487119331
0
LINE
5
107
100
AcDbEntity
8
0
100
AcDbLine
10
-4.5625000000000053
20
6.7045823160019573
30
0
11
-4.5625000000000053
21
7.1249999999999982
31
0
0
LINE
5
108
100
AcDbEntity
8
0
100
AcDbLine
10
-4.5625000000000053
20
7.1249999999999982
30
0
11
-5.1079176839980516
21
7.1249999999999982
31
0
0
ARC
5
109
100
AcDbEntity
8
0
100
AcDbCircle
10
-5.238253787975423
20
7.1992462120245859
30
0
40
0.15000000000000002
210
0
220
0
230
1
100
AcDbArc
50
119.66808512880685
51
330.33191487119308
0
LINE
5
110
100
AcDbEntity
8
0
100
AcDbLine
10
-5.3125000000000098
20
7.3295823160019564
30
0
11
-5.3125000000000098
21
7.9999999999999982
31
0
0
LINE
5
111
100
AcDbEntity
8
0
100
AcDbLine
10
-5.3125000000000098
20
7.9999999999999982
30
0
11
-6.5000000000000044
21
7.9999999999999982
31
0
0
LINE
5
112
100
AcDbEntity
8
0
100
AcDbLine
10
-6.5000000000000044
20
7.9999999999999982
30
0
11
-6.5000000000000018
21
-8
31
0
0
LINE
5
113
100
AcDbEntity
8
0
100
AcDbLine
10
-6.5000000000000018
20
-8
30
0
11
-0.38000000000000111
21
-8.0000000000000018
31
0
0
LINE
5
114
100
AcDbEntity
8
0
100
AcDbLine
10
-0.38000000000000111
20
-8.0000000000000018
30
0
11
-0.38000000000000628
21
1.7954176839980378
31
0
0
ARC
5
115
100
AcDbEntity
8
0
100
AcDbCircle
10
-0.30575378797541808
20
1.9257537879754072
30
0
40
0.15000000000000027
210
0
220
-0
230
1
100
AcDbArc
50
29.668085128807736
51
240.33191487119251
0
LINE
5
116
100
AcDbEntity
8
0
100
AcDbLine
10
-0.17541768399804802
20
1.9999999999999964
30
0
11
0.17541768399803445
21
1.9999999999999964
31
0
0
ARC
5
117
100
AcDbEntity
8
0
100
AcDbCircle
10
0.30575378797540426
20
1.9257537879754072
30
0
40
0.15000000000000022
210
-0
220
0
230
1
100
AcDbArc
50
-60.33191487119209
51
150.33191487119223
0
LINE
5
118
100
AcDbEntity
8
0
100
AcDbLine
10
6.4999999999999991
20
-8
30
0
11
6.4999999999999947
21
7.9999999999999982
31
0
0
LINE
5
119
100
AcDbEntity
8
0
100
AcDbLine
10
6.4999999999999947
20
7.9999999999999982
30
0
11
5.3124999999999876
21
7.9999999999999982
31
0
0
SPLINE
5
120
100
AcDbEntity
8
0
100
AcDbSpline
70
6
71
5
72
26
73
20
74
0
42
0.000000001
43
0.0000000001
44
0.0000000001
40
0
40
0
40
0
40
0
40
0
40
0
40
0.066666666666666666
40
0.13333333333333333
40
0.20000000000000001
40
0.26666666666666666
40
0.33333333333333331
40
0.39999999999999997
40
0.46666666666666662
40
0.53333333333333333
40
0.59999999999999998
40
0.66666666666666663
40
0.73333333333333328
40
0.79999999999999993
40
0.86666666666666659
40
0.93333333333333324
40
1
40
1
40
1
40
1
40
1
40
1
41
1
41
1
41
1
41
1
41
1
41
1
41
1
41
1
41
1
41
1
41
1
41
1
41
1
41
1
41
1
41
1
41
1
41
1
41
1
41
1
10
-6.5000000000000027
20
5.0196652650453197
30
0
10
-6.3008286860274145
20
5.145801028607182
30
0
10
-5.8848381573866675
20
5.3003816438256841
30
0
10
-5.2246570561196641
20
5.2288692500401881
30
0
10
-4.3491904871844218
20
4.5312151165192081
30
0
10
-3.4551575432079749
20
2.8439557527034638
30
0
10
-2.9305193919129096
20
0.6445097719324655
30
0
10
-2.8874989229724748
20
-1.7015489544091216
30
0
10
-3.348254736568641
20
-3.8183781753788861
30
0
10
-4.2121636794043926
20
-5.3696337456912442
30
0
10
-5.3050882683205431
20
-6.0924363037577205
30
0
10
-6.421719409238003
20
-5.8369587059536343
30
0
10
-7.3670064900686087
20
-4.6056203021561757
30
0
10
-8.0011402440752235
20
-2.6100722923438702
30
0
10
-8.2404565307435966
20
-0.20657242270905143
30
0
10
-8.0534768702884509
20
2.1803428602413786
30
0
10
-7.5812160362290397
20
3.7358612490930092
30
0
10
-7.0798660412221999
20
4.5435670624545166
30
0
10
-6.6991713139725908
20
4.8935295014834583
30
0
10
-6.5000000000000027
20
5.0196652650453197
30
0
0
LINE
5
121
100
AcDbEntity
8
0
100
AcDbLine
10
0
20
7.9999998798520551
30
2.1854783949314103e-16
11
0
21
-8.0000001201479432
31
2.1854783949314103e-16
0
SPLINE
5
122
100
AcDbEntity
8
0
100
AcDbSpline
70
6
71
5
72
26
73
20
74
0
42
0.000000001
43
0.0000000001
44
0.0000000001
40
0
40
0
40
0
40
0
40
0
40
0
40
0.066666666666666666
40
0.13333333333333333
40
0.20000000000000001
40
0.26666666666666666
40
0.33333333333333331
40
0.39999999999999997
40
0.46666666666666662
40
0.53333333333333333
40
0.59999999999999998
40
0.66666666666666663
40
0.73333333333333328
40
0.79999999999999993
40
0.86666666666666659
40
0.93333333333333324
40
1
40
1
40
1
40
1
40
1
40
1
41
1
41
1
41
1
41
1
41
1
41
1
41
1
41
1
41
1
41
1
41
1
41
1
41
1
41
1
41
1
41
1
41
1
41
1
41
1
41
1
10
6.5000000000000027
20
5.0196652650453197
30
0
10
6.3008286860274145
20
5.145801028607182
30
0
10
5.8848381573866675
20
5.3003816438256841
30
0
10
5.2246570561196641
20
5.2288692500401881
30
0
10
4.3491904871844218
20
4.5312151165192081
30
0
10
3.4551575432079749
20
2.8439557527034638
30
0
10
2.9305193919129096
20
0.6445097719324655
30
0
10
2.8874989229724748
20
-1.7015489544091216
30
0
10
3.348254736568641
20
-3.8183781753788861
30
0
10
4.2121636794043926
20
-5.3696337456912442
30
0
10
5.3050882683205431
20
-6.0924363037577205
30
0
10
6.421719409238003
20
-5.8369587059536343
30
0
10
7.3670064900686087
20
-4.6056203021561757
30
0
10
8.0011402440752235
20
-2.6100722923438702
30
0
10
8.2404565307435966
20
-0.20657242270905143
30
0
10
8.0534768702884509
20
2.1803428602413786
30
0
10
7.5812160362290397
20
3.7358612490930092
30
0
10
7.0798660412221999
20
4.5435670624545166
30
0
10
6.6991713139725908
20
4.8935295014834583
30
0
10
6.5000000000000027
20
5.0196652650453197
30
0
0
LINE
5
123
100
AcDbEntity
8
0
100
AcDbLine
10
0
20
-8.0000001201479414
30
2.1854783949314103e-16
11
0
21
7.9999998798520551
31
2.1854783949314103e-16
0
LWPOLYLINE
5
124
100
AcDbEntity
8
0
100
AcDbPolyline
90
3
70
1
43
0.0
10
0
20
-1.8000000574457362
10
-3.4400000000000013
20
-8.0000000000000018
10
0
20
-8.0000001201479414
0
LWPOLYLINE
5
125
100
AcDbEntity
8
0
100
AcDbPolyline
90
3
70
1
43
0.0
10
0
20
-8.0000001201479414
10
0
20
-1.8000000574457362
10
3.4400000000000013
20
-8
0
ENDSEC
0
SECTION
2
OBJECTS
0
DICTIONARY
5
C
100
AcDbDictionary
3
ACAD_GROUP
350
D
3
ACAD_MLINESTYLE
350
17
0
DICTIONARY
5
D
100
AcDbDictionary
0
DICTIONARY
5
1A
330
C
100
AcDbDictionary
0
DICTIONARY
5
17
100
AcDbDictionary
0
ENDSEC
0
EOF
